<svg width="50" height="51" viewBox="0 0 50 51" fill="none" xmlns="http://www.w3.org/2000/svg">
<path d="M14.5837 12.8604C12.0407 12.868 10.6333 12.9288 9.47684 13.4142C7.85698 14.0941 6.53784 15.35 5.76721 16.946C5.13819 18.2486 5.03528 19.9176 4.8294 23.2557L4.50682 28.4863C3.99488 36.7871 3.7389 40.9375 6.17467 43.565C8.61042 46.1925 12.7139 46.1925 20.921 46.1925H29.0797C37.2868 46.1925 41.3902 46.1925 43.826 43.565C46.2618 40.9375 46.0058 36.7871 45.4939 28.4863L45.1712 23.2557C44.9654 19.9176 44.8624 18.2486 44.2335 16.946C43.4629 15.35 42.1437 14.0941 40.5239 13.4142C39.3674 12.9288 37.9599 12.868 35.417 12.8604" stroke="white" stroke-width="3.5" stroke-linecap="round"/>
<path d="M35.4166 14.943L33.5712 10.3293C32.7749 8.33878 32.082 6.08074 30.0345 5.0671C28.9424 4.52637 27.6283 4.52637 24.9999 4.52637C22.3716 4.52637 21.0574 4.52637 19.9652 5.0671C17.9178 6.08074 17.2249 8.33878 16.4287 10.3293L14.5833 14.943" stroke="white" stroke-width="3.5" stroke-linecap="round" stroke-linejoin="round"/>
<path d="M32.2916 29.526C32.2916 33.5531 29.027 36.8177 24.9999 36.8177C20.9728 36.8177 17.7083 33.5531 17.7083 29.526C17.7083 25.499 20.9728 22.2344 24.9999 22.2344C29.027 22.2344 32.2916 25.499 32.2916 29.526Z" stroke="white" stroke-width="3.5"/>
<path d="M24.9995 12.8594H25.0183" stroke="white" stroke-width="4" stroke-linecap="round" stroke-linejoin="round"/>
</svg>
