<svg width="24" height="25" viewBox="0 0 24 25" fill="none" xmlns="http://www.w3.org/2000/svg">
<path d="M3 7.48877H6" stroke="#333333" stroke-width="2" stroke-linecap="round" stroke-linejoin="round"/>
<path d="M3 17.4888H9" stroke="#333333" stroke-width="2" stroke-linecap="round" stroke-linejoin="round"/>
<path d="M18 17.4888H21" stroke="#333333" stroke-width="2" stroke-linecap="round" stroke-linejoin="round"/>
<path d="M15 7.48877H21" stroke="#333333" stroke-width="2" stroke-linecap="round" stroke-linejoin="round"/>
<path d="M6 7.48877C6 6.55689 6 6.09095 6.15224 5.7234C6.35523 5.23335 6.74458 4.844 7.23463 4.64101C7.60218 4.48877 8.06812 4.48877 9 4.48877C9.93188 4.48877 10.3978 4.48877 10.7654 4.64101C11.2554 4.844 11.6448 5.23335 11.8478 5.7234C12 6.09095 12 6.55689 12 7.48877C12 8.42065 12 8.88659 11.8478 9.25414C11.6448 9.74419 11.2554 10.1335 10.7654 10.3365C10.3978 10.4888 9.93188 10.4888 9 10.4888C8.06812 10.4888 7.60218 10.4888 7.23463 10.3365C6.74458 10.1335 6.35523 9.74419 6.15224 9.25414C6 8.88659 6 8.42065 6 7.48877Z" stroke="#333333" stroke-width="2"/>
<path d="M12 17.4888C12 16.5569 12 16.091 12.1522 15.7234C12.3552 15.2334 12.7446 14.844 13.2346 14.641C13.6022 14.4888 14.0681 14.4888 15 14.4888C15.9319 14.4888 16.3978 14.4888 16.7654 14.641C17.2554 14.844 17.6448 15.2334 17.8478 15.7234C18 16.091 18 16.5569 18 17.4888C18 18.4207 18 18.8866 17.8478 19.2542C17.6448 19.7442 17.2554 20.1336 16.7654 20.3366C16.3978 20.4888 15.9319 20.4888 15 20.4888C14.0681 20.4888 13.6022 20.4888 13.2346 20.3366C12.7446 20.1336 12.3552 19.7442 12.1522 19.2542C12 18.8866 12 18.4207 12 17.4888Z" stroke="#333333" stroke-width="2"/>
</svg>
