<svg width="25" height="25" viewBox="0 0 25 25" fill="none" xmlns="http://www.w3.org/2000/svg">
<path d="M2.78205 13.5529C2.42903 11.2556 2.25252 10.107 2.68683 9.08874C3.12113 8.07048 4.08469 7.37379 6.0118 5.98042L7.45165 4.93936C9.84895 3.20603 11.0476 2.33936 12.4307 2.33936C13.8137 2.33936 15.0124 3.20603 17.4097 4.93936L18.8495 5.98042C20.7767 7.37379 21.7402 8.07048 22.1745 9.08874C22.6088 10.107 22.4323 11.2556 22.0793 13.5529L21.7783 15.5118C21.2778 18.7683 21.0276 20.3966 19.8597 21.368C18.6918 22.3394 16.9843 22.3394 13.5695 22.3394H11.2919C7.877 22.3394 6.16957 22.3394 5.00166 21.368C3.83375 20.3966 3.58353 18.7683 3.08309 15.5118L2.78205 13.5529Z" fill="#8246F3"/>
</svg>
