<svg width="34" height="35" viewBox="0 0 34 35" fill="none" xmlns="http://www.w3.org/2000/svg">
<path d="M12.7415 3.17285C8.77925 3.26345 6.46496 3.64192 4.8837 5.22318C3.30245 6.80443 2.92397 9.11873 2.83337 13.081M21.2585 3.17285C25.2208 3.26345 27.5351 3.64192 29.1164 5.22318C30.6977 6.80443 31.0762 9.11873 31.1667 13.081M21.2585 31.5062C25.2208 31.4157 27.5351 31.0371 29.1164 29.4558C30.6977 27.8746 31.0762 25.5603 31.1667 21.598M12.7415 31.5062C8.77925 31.4157 6.46496 31.0371 4.8837 29.4558C3.30245 27.8746 2.92397 25.5603 2.83337 21.598" stroke="white" stroke-width="1.7" stroke-linecap="round" stroke-linejoin="round"/>
<path d="M24.083 8.83984H24.0958" stroke="white" stroke-width="2.5" stroke-linecap="round" stroke-linejoin="round"/>
<path d="M18.4167 8.83984V13.0898C18.4167 15.7611 18.4167 17.0967 17.5868 17.9266C16.7569 18.7565 15.4213 18.7565 12.75 18.7565H8.5" stroke="white" stroke-width="1.7" stroke-linecap="round"/>
<path d="M8.91493 9.25477C8.5 9.66971 8.5 10.3375 8.5 11.6732C8.5 13.0088 8.5 13.6766 8.91493 14.0916M8.91493 9.25477C9.32987 8.83984 9.99769 8.83984 11.3333 8.83984C12.669 8.83984 13.3368 8.83984 13.7517 9.25477M8.91493 14.0916C9.32987 14.5065 9.99769 14.5065 11.3333 14.5065C12.669 14.5065 13.3368 14.5065 13.7517 14.0916M13.7517 14.0916C14.1667 13.6766 14.1667 13.0088 14.1667 11.6732C14.1667 10.3375 14.1667 9.66971 13.7517 9.25477" stroke="white" stroke-width="1.7"/>
<path d="M24.0834 21.5898C24.7512 21.5898 25.0851 21.5898 25.2926 21.7972C25.5 22.0048 25.5 22.3387 25.5 23.0065V24.4232C25.5 25.091 25.5 25.4249 25.2926 25.6324C25.0851 25.8398 24.7512 25.8398 24.0834 25.8398H21.25C20.5822 25.8398 20.2483 25.8398 20.0408 25.6324C19.8334 25.4249 19.8334 25.091 19.8334 24.4232V23.0065C19.8334 22.3387 19.8334 22.0048 20.0408 21.7972C20.2483 21.5898 20.5822 21.5898 21.25 21.5898H24.0834Z" stroke="white" stroke-width="1.7"/>
<path d="M8.5 25.8398H15.5833" stroke="white" stroke-width="1.7" stroke-linecap="round"/>
<path d="M24.0834 14.5068V17.3402" stroke="white" stroke-width="1.7" stroke-linecap="round"/>
</svg>
