<svg width="24" height="24" viewBox="0 0 24 24" fill="none" xmlns="http://www.w3.org/2000/svg">
<rect x="1" y="0.911133" width="22" height="22" rx="11" stroke="#BB86FC" stroke-width="1.5"/>
<path d="M17.4351 9.07662L17.1472 8.57694C16.9294 8.19904 16.8206 8.01009 16.6353 7.93474C16.4501 7.8594 16.2405 7.91885 15.8215 8.03776L15.1097 8.23825C14.8422 8.29994 14.5615 8.26494 14.3173 8.13944L14.1207 8.02605C13.9113 7.89189 13.7502 7.69408 13.661 7.46157L13.4662 6.87977C13.3381 6.49476 13.274 6.30225 13.1216 6.19214C12.9691 6.08203 12.7666 6.08203 12.3615 6.08203H11.7112C11.3062 6.08203 11.1037 6.08203 10.9512 6.19214C10.7987 6.30225 10.7347 6.49476 10.6066 6.87977L10.4118 7.46157C10.3226 7.69408 10.1615 7.89189 9.95205 8.02605L9.75554 8.13944C9.51127 8.26494 9.2306 8.29994 8.96307 8.23825L8.25127 8.03776C7.83224 7.91885 7.62273 7.8594 7.43748 7.93474C7.25222 8.01009 7.14335 8.19904 6.92559 8.57694L6.63767 9.07662C6.43355 9.43085 6.33149 9.60797 6.3513 9.79651C6.37111 9.98506 6.50774 10.137 6.78099 10.4409L7.38243 11.1133C7.52943 11.2994 7.63379 11.6237 7.63379 11.9153C7.63379 12.207 7.52946 12.5312 7.38244 12.7174L6.78099 13.3898C6.50774 13.6937 6.37111 13.8456 6.3513 14.0342C6.33149 14.2227 6.43355 14.3998 6.63767 14.754L6.92558 15.2537C7.14334 15.6316 7.25222 15.8206 7.43748 15.8959C7.62273 15.9713 7.83225 15.9118 8.25128 15.7929L8.96305 15.5924C9.23062 15.5307 9.51134 15.5657 9.75564 15.6913L9.95213 15.8047C10.1615 15.9388 10.3226 16.1366 10.4118 16.3691L10.6066 16.951C10.7347 17.336 10.7987 17.5285 10.9512 17.6386C11.1037 17.7487 11.3062 17.7487 11.7112 17.7487H12.3615C12.7666 17.7487 12.9691 17.7487 13.1216 17.6386C13.274 17.5285 13.3381 17.336 13.4662 16.951L13.661 16.3691C13.7502 16.1366 13.9112 15.9388 14.1207 15.8047L14.3172 15.6913C14.5615 15.5657 14.8422 15.5307 15.1097 15.5924L15.8215 15.7929C16.2405 15.9118 16.4501 15.9713 16.6353 15.8959C16.8206 15.8206 16.9294 15.6316 17.1472 15.2537L17.4351 14.754C17.6392 14.3998 17.7413 14.2227 17.7215 14.0342C17.7016 13.8456 17.565 13.6937 17.2918 13.3898L16.6903 12.7174C16.5433 12.5312 16.439 12.207 16.439 11.9153C16.439 11.6237 16.5434 11.2994 16.6903 11.1133L17.2918 10.4409C17.565 10.137 17.7016 9.98506 17.7215 9.79651C17.7413 9.60797 17.6392 9.43085 17.4351 9.07662Z" fill="#BB86FC" fill-opacity="0.5" stroke="#8246F3" stroke-width="1.5" stroke-linecap="round"/>
<path d="M9.95825 14.2445C10.3658 13.54 10.1275 12.0659 11.9999 12.0659C13.8723 12.0659 13.634 13.54 14.0416 14.2445M13.1666 10.4528C13.1666 11.0971 12.6443 11.6195 11.9999 11.6195C11.3556 11.6195 10.8333 11.0971 10.8333 10.4528C10.8333 9.80847 11.3556 9.28613 11.9999 9.28613C12.6443 9.28613 13.1666 9.80847 13.1666 10.4528Z" fill="#8246F3"/>
</svg>
