<svg width="24" height="24" viewBox="0 0 24 24" fill="none" xmlns="http://www.w3.org/2000/svg">
<rect x="1" y="0.770508" width="22" height="22" rx="11" stroke="#BB86FC" stroke-width="1.5"/>
<path d="M10.0417 6.60576L9.04726 7.06544C7.51575 7.77336 6.75 8.12732 6.75 8.70833C6.75 9.28935 7.51575 9.64331 9.04727 10.3512L10.0417 10.8109C11.0055 11.2564 11.4875 11.4792 12 11.4792C12.5125 11.4792 12.9945 11.2564 13.9583 10.8109L14.9527 10.3512C16.4843 9.64331 17.25 9.28935 17.25 8.70833C17.25 8.12732 16.4843 7.77336 14.9527 7.06544L13.9583 6.60576C12.9945 6.16025 12.5125 5.9375 12 5.9375C11.4875 5.9375 11.0055 6.16025 10.0417 6.60576Z" fill="#BB86FC" fill-opacity="0.5" stroke="#8246F3" stroke-width="1.5" stroke-linecap="round" stroke-linejoin="round"/>
<path d="M17.1263 11.2441C17.2088 11.36 17.25 11.4809 17.25 11.6138C17.25 12.1865 16.4843 12.5355 14.9527 13.2333L13.9582 13.6864C12.9945 14.1256 12.5125 14.3452 12 14.3452C11.4875 14.3452 11.0055 14.1256 10.0417 13.6864L9.04727 13.2333C7.51575 12.5355 6.75 12.1865 6.75 11.6138C6.75 11.4809 6.79122 11.36 6.87367 11.2441" stroke="#8246F3" stroke-width="1.5" stroke-linecap="round" stroke-linejoin="round"/>
<path d="M16.8864 14.2588C17.1288 14.4519 17.25 14.6443 17.25 14.8722C17.25 15.4449 16.4843 15.7938 14.9527 16.4917L13.9582 16.9448C12.9945 17.384 12.5125 17.6036 12 17.6036C11.4875 17.6036 11.0055 17.384 10.0417 16.9448L9.04727 16.4917C7.51575 15.7938 6.75 15.4449 6.75 14.8722C6.75 14.6443 6.8712 14.4519 7.11361 14.2588" stroke="#8246F3" stroke-width="1.5" stroke-linecap="round" stroke-linejoin="round"/>
</svg>
