<svg width="24" height="25" viewBox="0 0 24 25" fill="none" xmlns="http://www.w3.org/2000/svg">
<rect x="1" y="1.49365" width="22" height="22" rx="11" stroke="#BB86FC" stroke-width="1.5"/>
<path d="M14.4006 9.35974C14.4006 10.6856 13.3258 11.7605 11.9999 11.7605C10.674 11.7605 9.59912 10.6856 9.59912 9.35974C9.59912 8.03384 10.674 6.95898 11.9999 6.95898C13.3258 6.95898 14.4006 8.03384 14.4006 9.35974Z" fill="#8246F3" fill-opacity="0.5" stroke="#8246F3" stroke-width="1.5"/>
<path d="M9.10713 14.5507C8.35234 15.0001 6.37335 15.9178 7.57869 17.0662C8.16749 17.6271 8.82326 18.0283 9.64772 18.0283H14.3523C15.1767 18.0283 15.8325 17.6271 16.4213 17.0662C17.6266 15.9178 15.6477 15.0001 14.8929 14.5507C13.1229 13.4968 10.8771 13.4968 9.10713 14.5507Z" fill="#8246F3"/>
</svg>
