<svg width="24" height="25" viewBox="0 0 24 25" fill="none" xmlns="http://www.w3.org/2000/svg">
<rect x="1" y="1.62988" width="22" height="22" rx="11" stroke="#BB86FC" stroke-width="1.5"/>
<path d="M10.8334 9.71322H14.3334C15.9833 9.71322 16.8083 9.71322 17.3208 10.2258C17.8334 10.7383 17.8334 11.5633 17.8334 13.2132V14.3799C17.8334 16.0298 17.8334 16.8547 17.3208 17.3673C16.8083 17.8799 15.9833 17.8799 14.3334 17.8799H10.8334C8.63352 17.8799 7.53359 17.8799 6.85016 17.1964C6.16675 16.5131 6.16675 15.4131 6.16675 13.2132V12.0465C6.16675 9.84666 6.16675 8.74672 6.85016 8.0633C7.53359 7.37988 8.63352 7.37988 10.8334 7.37988H13.1667C13.7092 7.37988 13.9805 7.37988 14.203 7.43951C14.8069 7.60133 15.2786 8.07304 15.4405 8.67695C15.5001 8.89949 15.5001 9.17073 15.5001 9.71322" fill="#BB86FC" fill-opacity="0.3"/>
<path d="M10.8334 9.71322H14.3334C15.9833 9.71322 16.8083 9.71322 17.3208 10.2258C17.8334 10.7383 17.8334 11.5633 17.8334 13.2132V14.3799C17.8334 16.0298 17.8334 16.8547 17.3208 17.3673C16.8083 17.8799 15.9833 17.8799 14.3334 17.8799H10.8334C8.63352 17.8799 7.53359 17.8799 6.85016 17.1964C6.16675 16.5131 6.16675 15.4131 6.16675 13.2132V12.0465C6.16675 9.84666 6.16675 8.74672 6.85016 8.0633C7.53359 7.37988 8.63352 7.37988 10.8334 7.37988H13.1667C13.7092 7.37988 13.9805 7.37988 14.203 7.43951C14.8069 7.60133 15.2786 8.07304 15.4405 8.67695C15.5001 8.89949 15.5001 9.17073 15.5001 9.71322" stroke="#8246F3" stroke-width="1.5" stroke-linecap="round"/>
<path d="M14.3335 13.7969C14.3335 14.2801 14.7253 14.6719 15.2085 14.6719C15.6917 14.6719 16.0835 14.2801 16.0835 13.7969C16.0835 13.3136 15.6917 12.9219 15.2085 12.9219C14.7253 12.9219 14.3335 13.3136 14.3335 13.7969Z" fill="#8246F3"/>
</svg>
